<svg width="30" height="35" viewBox="0 0 30 35" fill="none" xmlns="http://www.w3.org/2000/svg">
<path d="M26.7857 4.28571H23.5714V0.803571C23.5714 0.359799 23.2116 0 22.7679 0H20.0893C19.6455 0 19.2857 0.359799 19.2857 0.803571V4.28571H10.7143V0.803571C10.7143 0.359799 10.3545 0 9.91071 0H7.23214C6.78837 0 6.42857 0.359799 6.42857 0.803571V4.28571H3.21429C1.43906 4.28571 0 5.72478 0 7.5V31.0714C0 32.8467 1.43906 34.2857 3.21429 34.2857H26.7857C28.5609 34.2857 30 32.8467 30 31.0714V7.5C30 5.72478 28.5609 4.28571 26.7857 4.28571ZM26.3839 31.0714H3.61607C3.50951 31.0714 3.40732 31.0291 3.33197 30.9538C3.25662 30.8784 3.21429 30.7762 3.21429 30.6696V10.7143H26.7857V30.6696C26.7857 30.7762 26.7434 30.8784 26.668 30.9538C26.5927 31.0291 26.4905 31.0714 26.3839 31.0714ZM22.8449 17.635L13.3153 27.0883C13.0002 27.4009 12.4915 27.3988 12.1789 27.0838L7.15045 22.0146C6.83792 21.6996 6.83993 21.1908 7.155 20.8782L8.67636 19.3691C8.99143 19.0566 9.50022 19.0586 9.81275 19.3737L12.7661 22.351L20.204 14.9728C20.5191 14.6603 21.0279 14.6623 21.3404 14.9774L22.8496 16.4987C23.1621 16.8137 23.16 17.3225 22.8449 17.635Z" fill="#AAAAAA"/>
</svg>
