<svg width="21" height="19" viewBox="0 0 21 19" fill="none" xmlns="http://www.w3.org/2000/svg">
<path d="M18.3667 3.8H15.2V1.9C15.2 0.851042 14.349 0 13.3 0H6.96667C5.91771 0 5.06667 0.851042 5.06667 1.9V3.8H1.9C0.851042 3.8 0 4.65104 0 5.7V17.1C0 18.149 0.851042 19 1.9 19H18.3667C19.4156 19 20.2667 18.149 20.2667 17.1V5.7C20.2667 4.65104 19.4156 3.8 18.3667 3.8ZM7.6 2.53333H12.6667V3.8H7.6V2.53333ZM13.9333 12.35C13.9333 12.5242 13.7908 12.6667 13.6167 12.6667H11.4V14.8833C11.4 15.0575 11.2575 15.2 11.0833 15.2H9.18333C9.00917 15.2 8.86667 15.0575 8.86667 14.8833V12.6667H6.65C6.47583 12.6667 6.33333 12.5242 6.33333 12.35V10.45C6.33333 10.2758 6.47583 10.1333 6.65 10.1333H8.86667V7.91667C8.86667 7.7425 9.00917 7.6 9.18333 7.6H11.0833C11.2575 7.6 11.4 7.7425 11.4 7.91667V10.1333H13.6167C13.7908 10.1333 13.9333 10.2758 13.9333 10.45V12.35Z" fill="#AAAAAA"/>
</svg>
